<svg width="176" height="72" viewBox="0 0 176 72" xmlns="http://www.w3.org/2000/svg">
    <g id="m" transform="translate(67.5)" stroke-linecap="round" fill-rule="evenodd" fill="currentColor"><path d="M 47.5 30.4 L 35 0.5 L 40 0.5 L 50.6 26.3 L 61.2 0.5 L 66.2 0.5 L 53.7 30.4 L 68.6 65 L 95.8 0 L 101.4 0 L 71 71 L 66.3 71 L 50.7 34.5 L 35 71 L 30.3 71 L 0 0 L 5.5 0 L 32.8 65 L 47.5 30.4 Z" vector-effect="non-scaling-stroke"/></g> 
    <g id="w" transform="rotate(180 50 35) translate(-2.9 -1)" stroke-linecap="round" fill-rule="evenodd" fill="currentColor"><path d="M 47.5 30.4 L 35 0.5 L 40 0.5 L 50.6 26.3 L 61.2 0.5 L 66.2 0.5 L 53.7 30.4 L 68.6 65 L 95.8 0 L 101.4 0 L 71 71 L 66.3 71 L 50.7 34.5 L 35 71 L 30.3 71 L 0 0 L 5.5 0 L 32.8 65 L 47.5 30.4 Z" vector-effect="non-scaling-stroke"/></g>
</svg>